<svg xmlns="http://www.w3.org/2000/svg" xmlns:xlink="http://www.w3.org/1999/xlink" viewBox="0 0 128 128" width="128" height="128" preserveAspectRatio="xMidYMid meet" style="width: 100%; height: 100%; transform: translate3d(0px, 0px, 0px); content-visibility: visible;"><defs><clipPath id="__lottie_element_58"><rect width="128" height="128" x="0" y="0"/></clipPath></defs><g clip-path="url(#__lottie_element_58)"><g transform="matrix(1,0,0,1,64,64)" opacity="1" style="display: block;"><path fill="rgb(255,129,0)" fill-opacity="1" d=" M-52,-12 C-54.20899963378906,-12 -56,-10.208999633789062 -56,-8 C-56,-8 -56,36 -56,36 C-56,38.20899963378906 -54.20899963378906,40 -52,40 C-52,40 -42,40 -42,40 C-40.89500045776367,40 -40,40.89500045776367 -40,42 C-40,42 -40,54.99800109863281 -40,54.99800109863281 C-40,55.98899841308594 -38.7140007019043,56.37699890136719 -38.16699981689453,55.55099868774414 C-38.16699981689453,55.55099868774414 -28.600000381469727,40.79999923706055 -28.600000381469727,40.79999923706055 C-28.222000122070312,40.29600143432617 -27.6299991607666,40 -27,40 C-27,40 12,40 12,40 C14.208999633789062,40 16,38.20899963378906 16,36 C16,36 16,-8 16,-8 C16,-10.208999633789062 14.208999633789062,-12 12,-12 C12,-12 -52,-12 -52,-12z"/></g><g transform="matrix(1,0,0,1,32,78)" opacity="1" style="display: block;"><path fill="rgb(255,213,0)" fill-opacity="1" d=" M0,-4 C2.2076001167297363,-4 4,-2.2076001167297363 4,0 C4,2.2076001167297363 2.2076001167297363,4 0,4 C-2.2076001167297363,4 -4,2.2076001167297363 -4,0 C-4,-2.2076001167297363 -2.2076001167297363,-4 0,-4z"/></g><g transform="matrix(1,0,0,1,44,78)" opacity="1" style="display: block;"><path fill="rgb(255,213,0)" fill-opacity="1" d=" M0,-4 C2.2076001167297363,-4 4,-2.2076001167297363 4,0 C4,2.2076001167297363 2.2076001167297363,4 0,4 C-2.2076001167297363,4 -4,2.2076001167297363 -4,0 C-4,-2.2076001167297363 -2.2076001167297363,-4 0,-4z"/></g><g transform="matrix(1,0,0,1,56,78)" opacity="1" style="display: block;"><path fill="rgb(255,213,0)" fill-opacity="1" d=" M0,-4 C2.2076001167297363,-4 4,-2.2076001167297363 4,0 C4,2.2076001167297363 2.2076001167297363,4 0,4 C-2.2076001167297363,4 -4,2.2076001167297363 -4,0 C-4,-2.2076001167297363 -2.2076001167297363,-4 0,-4z"/></g><g transform="matrix(1,0,0,1,64,64)" opacity="1" style="display: block;"><path fill="rgb(255,95,0)" fill-opacity="1" d=" M-16,-44 C-16,-44 -16,0 -16,0 C-16,2.2090001106262207 -14.208999633789062,4 -12,4 C-12,4 27,4 27,4 C27.6299991607666,4 28.222000122070312,4.296000003814697 28.600000381469727,4.800000190734863 C28.600000381469727,4.800000190734863 38.16699981689453,19.551000595092773 38.16699981689453,19.551000595092773 C38.7140007019043,20.37700080871582 40,19.98900032043457 40,18.99799919128418 C40,18.99799919128418 40,6 40,6 C40,4.894999980926514 40.89500045776367,4 42,4 C42,4 52,4 52,4 C54.20899963378906,4 56,2.2090001106262207 56,0 C56,0 56,-44 56,-44 C56,-46.20899963378906 54.20899963378906,-48 52,-48 C52,-48 -12,-48 -12,-48 C-14.208999633789062,-48 -16,-46.20899963378906 -16,-44z"/></g><g transform="matrix(1,0,0,1,64,64)" opacity="1" style="display: block;"><path fill="rgb(255,213,0)" fill-opacity="1" d=" M11.484999656677246,-12 C10.218999862670898,-12 9.222000122070312,-13.17199993133545 9.524999618530273,-14.401000022888184 C10.600000381469727,-18.763999938964844 14.539999961853027,-22 19.235000610351562,-22 C23.93000030517578,-22 27.8700008392334,-18.763999938964844 28.94499969482422,-14.401000022888184 C29.24799919128418,-13.17199993133545 28.25200080871582,-12 26.986000061035156,-12 C26.986000061035156,-12 11.484999656677246,-12 11.484999656677246,-12z"/></g><g transform="matrix(1,0,0,1,64,64)" opacity="1" style="display: block;"><path fill="rgb(255,213,0)" fill-opacity="1" d=" M25.235000610351562,-30 C25.235000610351562,-26.68600082397461 22.548999786376953,-24 19.235000610351562,-24 C15.920999526977539,-24 13.234999656677246,-26.68600082397461 13.234999656677246,-30 C13.234999656677246,-33.31399917602539 15.920999526977539,-36 19.235000610351562,-36 C22.548999786376953,-36 25.235000610351562,-33.31399917602539 25.235000610351562,-30z"/></g></g></svg>