<?xml version="1.0" encoding="utf-8"?>
<!-- Generator: Adobe Illustrator 27.2.0, SVG Export Plug-In . SVG Version: 6.00 Build 0)  -->
<svg version="1.1" id="Layer_1" xmlns="http://www.w3.org/2000/svg" xmlns:xlink="http://www.w3.org/1999/xlink" x="0px" y="0px"
	 viewBox="0 0 59.42 22.82" style="enable-background:new 0 0 59.42 22.82;" xml:space="preserve">
<path d="M8.1,7.42h2.09c1.57,0,2.33,0.61,2.33,2.47v2.94c0,1.67-0.43,2.58-2.05,2.58H8.1V7.42z M10.01,13.98h0.17
	c0.3,0,0.41-0.17,0.41-0.53V9.36c0-0.42-0.16-0.52-0.42-0.52h-0.16V13.98z"/>
<path d="M16.61,11.99h-1.46v1.85h1.76l-0.22,1.57h-3.45V7.42h3.44v1.57h-1.54v1.43h1.46V11.99z"/>
<path d="M17.98,15.4l-0.83-7.99h1.98l0.08,2.59c0.04,0.96,0.11,2.29,0.13,3.44h0.13c0.01-1.26,0.07-2.39,0.1-3.45l0.05-2.58h1.92
	l-0.86,7.99H17.98z"/>
<path d="M23.65,12.79v0.65c0,0.48,0.08,0.6,0.26,0.6c0.17,0,0.23-0.17,0.23-0.47c0-0.6-0.07-0.78-0.8-1.46
	c-0.97-0.91-1.43-1.38-1.43-2.54c0-1.28,0.48-2.27,2.03-2.27c1.7,0,2,1.04,2,2.12v0.49h-1.68V9.3c0-0.41-0.07-0.52-0.25-0.52
	c-0.14,0-0.23,0.12-0.23,0.48c0,0.42,0.07,0.59,0.67,1.13c1.09,0.97,1.61,1.48,1.61,2.75c0,1.46-0.44,2.39-2.13,2.39
	c-1.51,0-2.09-0.83-2.09-2.25v-0.48H23.65z"/>
<path d="M28.56,7.42v7.99h-1.89V7.42H28.56z"/>
<path d="M30.97,12.79v0.65c0,0.48,0.08,0.6,0.26,0.6c0.17,0,0.23-0.17,0.23-0.47c0-0.6-0.07-0.78-0.8-1.46
	c-0.97-0.91-1.43-1.38-1.43-2.54c0-1.28,0.48-2.27,2.03-2.27c1.7,0,2,1.04,2,2.12v0.49h-1.68V9.3c0-0.41-0.07-0.52-0.25-0.52
	c-0.14,0-0.23,0.12-0.23,0.48c0,0.42,0.07,0.59,0.67,1.13c1.09,0.97,1.61,1.48,1.61,2.75c0,1.46-0.44,2.39-2.13,2.39
	c-1.51,0-2.09-0.83-2.09-2.25v-0.48H30.97z"/>
<path d="M34.61,8.99h-0.95V7.42h3.79v1.57H36.5v6.42h-1.9V8.99z"/>
<path d="M41.36,11.99H39.9v1.85h1.76l-0.22,1.57h-3.45V7.42h3.44v1.57H39.9v1.43h1.46V11.99z"/>
<path d="M44.07,12.03v3.37h-1.89V7.42h2.36c1.56,0,2.05,0.79,2.05,2.05v0.29c0,0.9-0.3,1.36-0.77,1.6c0.58,0.26,0.73,0.71,0.73,1.87
	c0,0.96-0.01,1.87,0.02,2.18h-1.85c-0.08-0.14-0.11-0.7-0.11-2.52c0-0.79-0.07-0.85-0.45-0.85H44.07z M44.09,10.62h0.14
	c0.31,0,0.44-0.11,0.44-0.61V9.37c0-0.44-0.11-0.54-0.48-0.54h-0.11V10.62z"/>
<path d="M48.91,12.79v0.65c0,0.48,0.08,0.6,0.26,0.6c0.17,0,0.23-0.17,0.23-0.47c0-0.6-0.07-0.78-0.8-1.46
	c-0.97-0.91-1.43-1.38-1.43-2.54c0-1.28,0.48-2.27,2.03-2.27c1.7,0,2,1.04,2,2.12v0.49h-1.68V9.3c0-0.41-0.07-0.52-0.25-0.52
	c-0.14,0-0.23,0.12-0.23,0.48c0,0.42,0.07,0.59,0.67,1.13c1.09,0.97,1.61,1.48,1.61,2.75c0,1.46-0.44,2.39-2.13,2.39
	c-1.51,0-2.09-0.83-2.09-2.25v-0.48H48.91z"/>
</svg>
