<?xml version="1.0" encoding="utf-8"?>
<!-- Generator: Adobe Illustrator 27.2.0, SVG Export Plug-In . SVG Version: 6.00 Build 0)  -->
<svg version="1.1" id="Layer_1" xmlns="http://www.w3.org/2000/svg" xmlns:xlink="http://www.w3.org/1999/xlink" x="0px" y="0px"
	 viewBox="0 0 161 161" style="enable-background:new 0 0 161 161;" xml:space="preserve">
<path d="M75.81,62.25c2.46,0.02,4.93,0,7.39,0.06c2.4,0.06,4.54,0.87,6.32,2.48c3.86,3.48,3.43,9.3-0.87,12.3
	c-1.74,1.21-3.69,1.79-5.8,1.83c-2.35,0.05-4.69,0.05-7.04,0.07C75.81,73.41,75.81,67.83,75.81,62.25z M80.58,70.57
	c0,1.31,0.04,2.62-0.02,3.93c-0.03,0.78,0.27,1.03,1,0.94c0.6-0.07,1.2-0.08,1.79-0.18c2.27-0.4,3.79-2.04,3.88-4.14
	c0.11-2.71-1.04-4.43-3.47-5.06c-0.74-0.19-1.53-0.18-2.29-0.27c-0.66-0.08-0.92,0.16-0.9,0.86C80.61,67.95,80.58,69.26,80.58,70.57
	z"/>
</svg>
