<svg xmlns="http://www.w3.org/2000/svg" xmlns:xlink="http://www.w3.org/1999/xlink" viewBox="0 0 128 128" width="128" height="128" preserveAspectRatio="xMidYMid meet" style="width: 100%; height: 100%; transform: translate3d(0px, 0px, 0px); content-visibility: visible;"><defs><clipPath id="__lottie_element_81"><rect width="128" height="128" x="0" y="0"/></clipPath></defs><g clip-path="url(#__lottie_element_81)"><g transform="matrix(1,0,0,1,64,64)" opacity="1" style="display: block;"><path fill="rgb(255,95,0)" fill-opacity="1" d=" M-1.940000057220459,-27.392000198364258 C-1.940000057220459,-27.392000198364258 -48,-15.939000129699707 -48,-15.939000129699707 C-48,-15.939000129699707 -48,20.12299919128418 -48,20.12299919128418 C-48,20.12299919128418 0,20.12299919128418 0,20.12299919128418 C0,20.12299919128418 48,20.12299919128418 48,20.12299919128418 C48,20.12299919128418 48,-15.939000129699707 48,-15.939000129699707 C48,-15.939000129699707 1.940000057220459,-27.392000198364258 1.940000057220459,-27.392000198364258 C0.6660000085830688,-27.709999084472656 -0.6660000085830688,-27.709999084472656 -1.940000057220459,-27.392000198364258z"/></g><g transform="matrix(1,0,0,1,64,72.4000015258789)" opacity="1" style="display: block;"><path fill="rgb(255,213,0)" fill-opacity="1" d=" M0,-24 C13.245599746704102,-24 24,-13.245599746704102 24,0 C24,13.245599746704102 13.245599746704102,24 0,24 C-13.245599746704102,24 -24,13.245599746704102 -24,0 C-24,-13.245599746704102 -13.245599746704102,-24 0,-24z"/></g><g transform="matrix(1,0,0,1,64,64)" opacity="1" style="display: block;"><path fill="rgb(255,212,0)" fill-opacity="1" d=" M0.6700000166893005,-19.954999923706055 C0.289000004529953,-19.611000061035156 -0.289000004529953,-19.611000061035156 -0.6700000166893005,-19.954999923706055 C-0.6700000166893005,-19.954999923706055 -2.049999952316284,-21.200000762939453 -2.049999952316284,-21.200000762939453 C-5.583000183105469,-24.433000564575195 -8.5,-27.225000381469727 -10.800000190734863,-29.575000762939453 C-13.100000381469727,-31.924999237060547 -14.932999610900879,-34.025001525878906 -16.299999237060547,-35.875 C-17.66699981689453,-37.724998474121094 -18.625,-39.400001525878906 -19.174999237060547,-40.900001525878906 C-19.725000381469727,-42.400001525878906 -20,-43.91699981689453 -20,-45.45000076293945 C-20,-48.45000076293945 -18.992000579833984,-50.95800018310547 -16.975000381469727,-52.974998474121094 C-14.958000183105469,-54.992000579833984 -12.467000007629395,-56 -9.5,-56 C-7.599999904632568,-56 -5.8420000076293945,-55.54999923706055 -4.224999904632568,-54.650001525878906 C-2.6080000400543213,-53.75 -1.2000000476837158,-52.45000076293945 0,-50.75 C1.399999976158142,-52.54999923706055 2.882999897003174,-53.875 4.449999809265137,-54.724998474121094 C6.017000198364258,-55.57500076293945 7.699999809265137,-56 9.5,-56 C12.467000007629395,-56 14.958000183105469,-54.992000579833984 16.975000381469727,-52.974998474121094 C18.992000579833984,-50.95800018310547 20,-48.45000076293945 20,-45.45000076293945 C20,-43.91699981689453 19.725000381469727,-42.400001525878906 19.174999237060547,-40.900001525878906 C18.625,-39.400001525878906 17.66699981689453,-37.724998474121094 16.299999237060547,-35.875 C14.932999610900879,-34.025001525878906 13.100000381469727,-31.924999237060547 10.800000190734863,-29.575000762939453 C8.5,-27.225000381469727 5.583000183105469,-24.433000564575195 2.049999952316284,-21.200000762939453 C2.049999952316284,-21.200000762939453 0.6700000166893005,-19.954999923706055 0.6700000166893005,-19.954999923706055z"/></g><g transform="matrix(-1,0,0,1,64,64)" opacity="1" style="display: block;"><path fill="rgb(255,95,0)" fill-opacity="1" d=" M-48,-15.751999855041504 C-48,-15.751999855041504 -48,41 -48,41 C-48,42.834999084472656 -46.750999450683594,44.43600082397461 -44.970001220703125,44.88100051879883 C-44.970001220703125,44.88100051879883 -0.9700000286102295,55.88100051879883 -0.9700000286102295,55.88100051879883 C-0.6510000228881836,55.96099853515625 -0.32600000500679016,56 0,56 C0,56 0,-2.877000093460083 0,-2.877000093460083 C0,-2.877000093460083 -48,-15.751999855041504 -48,-15.751999855041504z"/></g><g transform="matrix(0.7071067690849304,-0.19490504264831543,0.5416752099990845,0.767193078994751,88.0416259765625,54.62677001953125)" opacity="1" style="display: block;"><path fill="rgb(255,129,0)" fill-opacity="1" d=" M34,0 C34,0 34,16 34,16 C34,16 -34,16 -34,16 C-34,16 -34,0 -34,0 C-34,0 34,0 34,0z M34,8 C34,8 34,18 34,18 C34,22.415199279785156 30.415199279785156,26 26,26 C26,26 -26,26 -26,26 C-30.415199279785156,26 -34,22.415199279785156 -34,18 C-34,18 -34,8 -34,8 C-34,3.5848000049591064 -30.415199279785156,0 -26,0 C-26,0 26,0 26,0 C30.415199279785156,0 34,3.5848000049591064 34,8z"/></g><g transform="matrix(1,0,0,1,64,64)" opacity="1" style="display: block;"><path fill="rgb(255,129,0)" fill-opacity="1" d=" M-48,-15.751999855041504 C-48,-15.751999855041504 -48,41 -48,41 C-48,42.834999084472656 -46.750999450683594,44.43600082397461 -44.970001220703125,44.88100051879883 C-44.970001220703125,44.88100051879883 -0.9700000286102295,55.88100051879883 -0.9700000286102295,55.88100051879883 C-0.6510000228881836,55.96099853515625 -0.32600000500679016,56 0,56 C0,56 0,-2.877000093460083 0,-2.877000093460083 C0,-2.877000093460083 -48,-15.751999855041504 -48,-15.751999855041504z"/></g><g transform="matrix(0.7071067690849304,0.19490504264831543,-0.5416752099990845,0.767193078994751,39.958370208740234,54.62677001953125)" opacity="1" style="display: block;"><path fill="rgb(255,129,0)" fill-opacity="1" d=" M34,0 C34,0 34,16 34,16 C34,16 -34,16 -34,16 C-34,16 -34,0 -34,0 C-34,0 34,0 34,0z M34,8 C34,8 34,18 34,18 C34,22.415199279785156 30.415199279785156,26 26,26 C26,26 -26,26 -26,26 C-30.415199279785156,26 -34,22.415199279785156 -34,18 C-34,18 -34,8 -34,8 C-34,3.5848000049591064 -30.415199279785156,0 -26,0 C-26,0 26,0 26,0 C30.415199279785156,0 34,3.5848000049591064 34,8z"/></g></g></svg>