<svg xmlns="http://www.w3.org/2000/svg"><symbol id="17717"><g clip-path="url(#__lottie_element_2)"><g mask="url(#__lottie_element_10_1)" style="display: block;"><g clip-path="url(#__lottie_element_7)" transform="matrix(1,0,0,1,0,0)" opacity="1"><g transform="matrix(1,0,0,1,98,79)" opacity="1" style="display: block;"><path fill="rgb(255,213,0)" fill-opacity="1" d=" M10,-23 C10,-23 10,23 10,23 C10,23 -10,23 -10,23 C-10,23 -10,-23 -10,-23 C-10,-23 10,-23 10,-23z"></path></g><g transform="matrix(1,0,0,1,108,60)" opacity="1" style="display: block;"><path fill="rgb(255,212,0)" fill-opacity="1" d=" M6,-4 C6,-4 6,4 6,4 C6,4 -6,4 -6,4 C-6,4 -6,-4 -6,-4 C-6,-4 6,-4 6,-4z"></path></g><g transform="matrix(1,0,0,1,114,62)" opacity="1" style="display: block;"><path fill="rgb(255,129,0)" fill-opacity="1" d=" M0,-6 C3.3113999366760254,-6 6,-3.3113999366760254 6,0 C6,3.3113999366760254 3.3113999366760254,6 0,6 C-3.3113999366760254,6 -6,3.3113999366760254 -6,0 C-6,-3.3113999366760254 -3.3113999366760254,-6 0,-6z"></path></g><g transform="matrix(1,0,0,1,64,64)" opacity="1" style="display: block;"><path fill="rgb(255,129,0)" fill-opacity="1" d=" M52,24 C52,24 38.05500030517578,24 38.05500030517578,24 C38.05500030517578,24 38.05500030517578,-2.6670000553131104 38.05500030517578,-2.6670000553131104 C38.05500030517578,-2.6670000553131104 56,-2.6670000553131104 56,-2.6670000553131104 C56,-2.6670000553131104 56,20 56,20 C56,22.208999633789062 54.20899963378906,24 52,24z"></path></g></g></g><g mask="url(#__lottie_element_17_1)" style="display: block;"><g clip-path="url(#__lottie_element_14)" transform="matrix(1,0,0,1,0,0)" opacity="1"><g transform="matrix(1,0,0,1,88,102)" opacity="1" style="display: block;"><path fill="rgb(255,95,0)" fill-opacity="1" d=" M10,-10 C10,-10 10,10 10,10 C10,10 -10,10 -10,10 C-10,10 -10,-10 -10,-10 C-10,-10 10,-10 10,-10z"></path></g><g transform="matrix(1,0,0,1,98,102)" opacity="1" style="display: block;"><path fill="rgb(255,213,0)" fill-opacity="1" d=" M0,-10 C5.519000053405762,-10 10,-5.519000053405762 10,0 C10,5.519000053405762 5.519000053405762,10 0,10 C-5.519000053405762,10 -10,5.519000053405762 -10,0 C-10,-5.519000053405762 -5.519000053405762,-10 0,-10z"></path></g><g transform="matrix(1,0,0,1,95,79)" opacity="1" style="display: block;"><path fill="rgb(255,213,0)" fill-opacity="1" d=" M13,-23 C13,-23 13,23 13,23 C13,23 -13,23 -13,23 C-13,23 -13,-23 -13,-23 C-13,-23 13,-23 13,-23z"></path></g><g mask="url(#__lottie_element_53_2)" style="display: block;"><g mask="url(#__lottie_element_51)" transform="matrix(1,0,0,1,108,60)" opacity="1"><path fill="rgb(255,212,0)" fill-opacity="1" d=" M6,-4 C6,-4 6,4 6,4 C6,4 -6,4 -6,4 C-6,4 -6,-4 -6,-4 C-6,-4 6,-4 6,-4z"></path></g></g></g></g><g transform="matrix(1,0,0,1,64,64)" opacity="1" style="display: block;"><path fill="rgb(255,95,0)" fill-opacity="1" d=" M23.983999252319336,48 C23.983999252319336,48 -52,48 -52,48 C-54.20899963378906,48 -56,46.20899963378906 -56,44 C-56,44 -56,-44 -56,-44 C-56,-46.20899963378906 -54.20899963378906,-48 -52,-48 C-52,-48 20,-48 20,-48 C22.208999633789062,-48 24,-46.20899963378906 24,-44 C24,-44 24,47.98400115966797 24,47.98400115966797 C24,47.99300003051758 23.993000030517578,48 23.983999252319336,48z"></path></g><g transform="matrix(1,0,0,1,32,36)" opacity="1" style="display: block;"><path fill="rgb(255,213,0)" fill-opacity="1" d=" M12,-4 C12,-4 12,4 12,4 C12,4 -12,4 -12,4 C-12,4 -12,-4 -12,-4 C-12,-4 12,-4 12,-4z"></path></g><g transform="matrix(1,0,0,1,48,50)" opacity="1" style="display: block;"><path fill="rgb(255,213,0)" fill-opacity="1" d=" M28,-4 C28,-4 28,4 28,4 C28,4 -28,4 -28,4 C-28,4 -28,-4 -28,-4 C-28,-4 28,-4 28,-4z"></path></g><g transform="matrix(1,0,0,1,48,64)" opacity="1" style="display: block;"><path fill="rgb(255,213,0)" fill-opacity="1" d=" M28,-4 C28,-4 28,4 28,4 C28,4 -28,4 -28,4 C-28,4 -28,-4 -28,-4 C-28,-4 28,-4 28,-4z"></path></g></g></symbol><use xlink:href="#17717"></use></svg>